<svg width="18" height="20" viewBox="0 0 18 20" fill="none" xmlns="http://www.w3.org/2000/svg">
<path d="M1.48686 11.4234C1.79533 11.4234 2.04307 11.6709 2.06772 11.9747C2.16265 13.1447 2.55858 14.2747 3.22201 15.2557C3.98916 16.3901 5.07953 17.2742 6.35528 17.7962C7.63096 18.3183 9.03476 18.4549 10.389 18.1888C11.7434 17.9226 12.9873 17.2657 13.9637 16.301C14.9402 15.3363 15.6051 14.1072 15.8745 12.7691C16.1439 11.4311 16.0056 10.0442 15.4772 8.78376C14.9488 7.52332 14.0539 6.44603 12.9058 5.68812C11.7577 4.93014 10.4079 4.52558 9.02702 4.52558H6.79292C6.48445 4.52558 6.23435 4.77265 6.23435 5.07742V6.64227C6.23435 7.13392 5.63274 7.38013 5.28088 7.03249L2.44034 4.226C2.22221 4.0105 2.22221 3.6611 2.44034 3.4456L5.28088 0.63911C5.63274 0.291482 6.23435 0.537686 6.23435 1.02932V2.59419C6.23435 2.89895 6.48445 3.14601 6.79292 3.14601H9.02702C10.684 3.14601 12.3038 3.63148 13.6816 4.54101C15.0593 5.45055 16.1331 6.74329 16.7672 8.2558C17.4013 9.7683 17.5673 11.4326 17.244 13.0383C16.9207 14.644 16.1228 16.1188 14.9511 17.2765C13.7794 18.4341 12.2866 19.2225 10.6615 19.5419C9.03629 19.8612 7.35178 19.6973 5.82091 19.0708C4.29005 18.4443 2.98159 17.3833 2.06101 16.0222C1.24411 14.8142 0.765193 13.418 0.667677 11.9749C0.647131 11.6708 0.899136 11.4234 1.2076 11.4234H1.48686Z" fill="white"/>
<path fill-rule="evenodd" clip-rule="evenodd" d="M11.579 14.2724C11.2704 14.2799 10.9645 14.2161 10.6853 14.0862C10.4374 13.9619 10.2241 13.7795 10.0639 13.555C9.8884 13.2931 9.76516 13.0005 9.70093 12.6928C9.61842 12.312 9.5786 11.9234 9.58223 11.5339C9.57937 11.1446 9.61919 10.756 9.70093 10.3751C9.76642 10.0679 9.88959 9.77541 10.0639 9.51288C10.2241 9.28838 10.4374 9.10605 10.6853 8.98174C10.9645 8.85179 11.2704 8.78805 11.579 8.79549C11.869 8.77371 12.1599 8.82567 12.4239 8.94639C12.6878 9.06712 12.9162 9.25269 13.087 9.48525C13.447 10.097 13.617 10.7999 13.5757 11.5064C13.617 12.2128 13.447 12.9157 13.087 13.5274C12.9227 13.7702 12.6972 13.9665 12.4328 14.0972C12.1684 14.2278 11.8741 14.2882 11.579 14.2724ZM11.579 13.4309C11.7197 13.4392 11.86 13.408 11.9835 13.3408C12.1071 13.2737 12.2088 13.1734 12.2771 13.0515C12.4439 12.7288 12.5324 12.3722 12.5354 12.0099V11.058C12.5505 10.7022 12.4812 10.3479 12.333 10.0233C12.2549 9.90516 12.1483 9.80814 12.0228 9.74096C11.8972 9.67378 11.7566 9.63863 11.6139 9.63863C11.4711 9.63863 11.3306 9.67378 11.205 9.74096C11.0794 9.80814 10.9728 9.90516 10.8947 10.0233C10.7465 10.3479 10.6772 10.7022 10.6923 11.058V12.0099C10.6779 12.3678 10.7472 12.7243 10.8947 13.0515C10.9613 13.1717 11.0608 13.2711 11.1818 13.3381C11.3027 13.4052 11.4404 13.4373 11.579 13.4309ZM5.2955 13.3688V14.1827H8.89107V13.3343H7.64831V8.85068H6.629L5.00928 9.74737L5.39322 10.4785L6.69184 9.78878V13.3688H5.2955Z" fill="white"/>
</svg>
