<svg width="18" height="20" viewBox="0 0 18 20" fill="none" xmlns="http://www.w3.org/2000/svg">
<path d="M16.3232 11.4234C16.0147 11.4234 15.767 11.6709 15.7423 11.9747C15.6474 13.1447 15.2515 14.2747 14.588 15.2557C13.8209 16.3901 12.7305 17.2742 11.4548 17.7962C10.1791 18.3183 8.7753 18.4549 7.42102 18.1888C6.06667 17.9226 4.82272 17.2657 3.84631 16.301C2.8699 15.3363 2.20496 14.1072 1.93554 12.7691C1.66619 11.4311 1.80443 10.0442 2.33287 8.78376C2.86125 7.52332 3.75613 6.44603 4.90425 5.68812C6.05237 4.93014 7.40219 4.52558 8.78304 4.52558H11.0171C11.3256 4.52558 11.5757 4.77265 11.5757 5.07742V6.64227C11.5757 7.13392 12.1773 7.38013 12.5292 7.03249L15.3697 4.226C15.5878 4.0105 15.5878 3.6611 15.3697 3.4456L12.5292 0.63911C12.1773 0.291482 11.5757 0.537686 11.5757 1.02932V2.59419C11.5757 2.89895 11.3256 3.14601 11.0171 3.14601H8.78304C7.12607 3.14601 5.50628 3.63148 4.12849 4.54101C2.75078 5.45055 1.67693 6.74329 1.04283 8.2558C0.408716 9.7683 0.242796 11.4326 0.566057 13.0383C0.889318 14.644 1.68726 16.1188 2.85895 17.2765C4.03064 18.4341 5.52343 19.2225 7.1486 19.5419C8.77376 19.8612 10.4583 19.6973 11.9892 19.0708C13.52 18.4443 14.8285 17.3833 15.7491 16.0222C16.566 14.8142 17.0449 13.418 17.1424 11.9749C17.1629 11.6708 16.9109 11.4234 16.6025 11.4234H16.3232Z" fill="white"/>
<path fill-rule="evenodd" clip-rule="evenodd" d="M10.7982 14.2724C10.4897 14.2799 10.1837 14.2161 9.90453 14.0862C9.65666 13.9619 9.44331 13.7795 9.28318 13.555C9.10764 13.2931 8.9844 13.0005 8.92017 12.6928C8.83766 12.312 8.79784 11.9234 8.80146 11.5339C8.7986 11.1446 8.83843 10.756 8.92017 10.3751C8.98566 10.0679 9.10882 9.77541 9.28318 9.51288C9.44331 9.28838 9.65666 9.10605 9.90453 8.98174C10.1837 8.85179 10.4897 8.78805 10.7982 8.79549C11.0883 8.77371 11.3791 8.82567 11.6431 8.94639C11.9071 9.06712 12.1354 9.25269 12.3062 9.48525C12.6662 10.097 12.8362 10.7999 12.7949 11.5064C12.8362 12.2128 12.6662 12.9157 12.3062 13.5274C12.1419 13.7702 11.9164 13.9665 11.652 14.0972C11.3876 14.2278 11.0934 14.2882 10.7982 14.2724ZM10.7982 13.4309C10.939 13.4392 11.0792 13.408 11.2027 13.3408C11.3263 13.2737 11.4281 13.1734 11.4964 13.0515C11.6632 12.7288 11.7517 12.3722 11.7547 12.0099V11.058C11.7698 10.7022 11.7004 10.3479 11.5522 10.0233C11.4742 9.90516 11.3675 9.80814 11.242 9.74096C11.1164 9.67378 10.9759 9.63863 10.8331 9.63863C10.6903 9.63863 10.5498 9.67378 10.4243 9.74096C10.2986 9.80814 10.192 9.90516 10.114 10.0233C9.96576 10.3479 9.89644 10.7022 9.9115 11.058V12.0099C9.89714 12.3678 9.96639 12.7243 10.114 13.0515C10.1806 13.1717 10.28 13.2711 10.401 13.3381C10.522 13.4052 10.6596 13.4373 10.7982 13.4309ZM4.51474 13.3688V14.1827H8.11031V13.3343H6.86754V8.85068H5.84824L4.22852 9.74737L4.61245 10.4785L5.91108 9.78878V13.3688H4.51474Z" fill="white"/>
</svg>
