<svg width="21" height="20" viewBox="0 0 21 20" fill="none" xmlns="http://www.w3.org/2000/svg">
<path fill-rule="evenodd" clip-rule="evenodd" d="M14.6162 2.5C15.7337 2.5 16.8087 2.94167 17.5995 3.73417C18.3912 4.525 18.8337 5.59167 18.8337 6.70833V13.2917C18.8337 15.6167 16.942 17.5 14.6162 17.5H6.38366C4.05783 17.5 2.16699 15.6167 2.16699 13.2917V6.70833C2.16699 4.38333 4.04949 2.5 6.38366 2.5H14.6162ZM15.942 7.95L16.0087 7.88333C16.2078 7.64167 16.2078 7.29167 15.9995 7.05C15.8837 6.92583 15.7245 6.85 15.5587 6.83333C15.3837 6.82417 15.217 6.88333 15.0912 7L11.3337 10C10.8503 10.4008 10.1578 10.4008 9.66699 10L5.91699 7C5.65783 6.80833 5.29949 6.83333 5.08366 7.05833C4.85866 7.28333 4.83366 7.64167 5.02449 7.89167L5.13366 8L8.92533 10.9583C9.39199 11.325 9.95783 11.525 10.5503 11.525C11.1412 11.525 11.717 11.325 12.1828 10.9583L15.942 7.95Z" fill="#378AE3"/>
</svg>
