<svg width="28" height="23" viewBox="0 0 28 23" fill="none" xmlns="http://www.w3.org/2000/svg">
<path d="M2.84406 6.82125C2.84394 6.82111 2.84382 6.82098 2.8437 6.82084M2.84406 6.82125L2.84394 6.82112L2.8438 6.82095C2.84391 6.82109 2.84406 6.82125 2.4668 7.14939L2.8437 6.82084M2.84406 6.82125L2.84628 6.82377L2.85824 6.83715C2.86941 6.84956 2.88691 6.86877 2.91046 6.89396C2.95759 6.94435 3.0288 7.01853 3.12183 7.10988C3.30819 7.29286 3.58051 7.54313 3.92071 7.80849C4.6072 8.34397 5.54047 8.91758 6.58071 9.14898C7.60188 9.37614 8.73493 9.27752 9.88253 8.45698C11.0491 7.6229 12.2748 6.01099 13.3793 3.11589C13.4526 2.9239 13.6358 2.79627 13.8413 2.79414C14.0468 2.79202 14.2326 2.91583 14.3098 3.10627C15.488 6.01236 16.7682 7.63277 17.9777 8.47193C19.1695 9.29874 20.3338 9.39613 21.3748 9.16577C22.434 8.93137 23.3766 8.35323 24.0671 7.8148C24.4094 7.54784 24.6827 7.29618 24.8695 7.11225C24.9627 7.02042 25.034 6.94587 25.0811 6.89525C25.1047 6.86994 25.1222 6.85066 25.1333 6.83821L25.1452 6.8248L25.1474 6.82231L25.1476 6.82215L25.1477 6.82201M2.84406 6.82125L25.1477 6.82201M2.8437 6.82084C2.68941 6.64384 2.4327 6.59803 2.2267 6.71081C2.02053 6.82368 1.92081 7.0649 1.98709 7.2904L6.17961 21.5528C6.24217 21.7656 6.43748 21.9118 6.65931 21.9118H21.0336C21.2519 21.9118 21.445 21.7702 21.5105 21.562L26.0025 7.29959C26.0737 7.07344 25.9763 6.82835 25.7693 6.71279C25.5624 6.5973 25.3028 6.64292 25.1477 6.82201M2.8437 6.82084L25.1477 6.82201" fill="#00B3F3" stroke="#00B3F3" stroke-linejoin="round"/>
<ellipse cx="13.8316" cy="1.64706" rx="1.64706" ry="1.64706" fill="#00B3F3"/>
<ellipse cx="26.3492" cy="5.7647" rx="1.64706" ry="1.64706" fill="#00B3F3"/>
<ellipse cx="1.64315" cy="5.7647" rx="1.64706" ry="1.64706" fill="#00B3F3"/>
</svg>
