<svg width="20" height="20" viewBox="0 0 20 20" fill="none" xmlns="http://www.w3.org/2000/svg">
<path fill-rule="evenodd" clip-rule="evenodd" d="M3.33504 10.0001C3.33272 11.0248 3.28699 12.4225 3.92095 12.945C4.51227 13.4323 4.92845 13.3067 6.00803 13.3859C7.08839 13.4659 9.36846 16.6417 11.1262 15.6372C12.0329 14.9241 12.1003 13.4293 12.1003 10.0001C12.1003 6.57098 12.0329 5.07615 11.1262 4.36311C9.36846 3.35783 7.08839 6.53436 6.00803 6.61433C4.92845 6.69356 4.51227 6.56799 3.92095 7.05531C3.28699 7.57775 3.33272 8.97543 3.33504 10.0001Z" stroke="white" stroke-width="1.5" stroke-linecap="round" stroke-linejoin="round"/>
<path d="M15.4844 6.92871C16.5771 8.83762 16.5771 11.1688 15.4844 13.0717" stroke="white" stroke-width="1.5" stroke-linecap="round" stroke-linejoin="round"/>
</svg>
