<svg width="20" height="20" viewBox="0 0 20 20" fill="none" xmlns="http://www.w3.org/2000/svg">
<path fill-rule="evenodd" clip-rule="evenodd" d="M2.08504 10.0001C2.08272 11.0248 2.03699 12.4225 2.67095 12.945C3.26227 13.4323 3.67845 13.3067 4.75803 13.3859C5.83839 13.4659 8.11846 16.6417 9.87617 15.6372C10.7829 14.9241 10.8503 13.4293 10.8503 10.0001C10.8503 6.57098 10.7829 5.07615 9.87617 4.36311C8.11846 3.35783 5.83839 6.53436 4.75803 6.61433C3.67845 6.69356 3.26227 6.56799 2.67095 7.05531C2.03699 7.57775 2.08272 8.97543 2.08504 10.0001Z" stroke="white" stroke-width="1.5" stroke-linecap="round" stroke-linejoin="round"/>
<path d="M16.3203 4.91998C18.4454 7.97916 18.4524 12.0145 16.3203 15.0796" stroke="white" stroke-width="1.5" stroke-linecap="round" stroke-linejoin="round"/>
<path d="M14.2344 6.92871C15.3271 8.83762 15.3271 11.1688 14.2344 13.0717" stroke="white" stroke-width="1.5" stroke-linecap="round" stroke-linejoin="round"/>
</svg>
